<svg width="31" height="31" viewBox="0 0 31 31" fill="none" xmlns="http://www.w3.org/2000/svg">
<path d="M11.2198 13.3583C12.7445 16.037 14.963 18.2555 17.6418 19.7803L19.0782 17.7685C19.3093 17.445 19.6508 17.2174 20.0383 17.1288C20.4258 17.0402 20.8323 17.0966 21.181 17.2875C23.4793 18.5435 26.0173 19.2989 28.6284 19.504C29.0359 19.5363 29.4163 19.721 29.6936 20.0213C29.971 20.3215 30.1251 20.7153 30.125 21.1241V28.3749C30.1251 28.7772 29.9759 29.1653 29.7063 29.464C29.4368 29.7627 29.066 29.9507 28.6657 29.9917C27.8045 30.0811 26.9368 30.125 26.0625 30.125C12.1525 30.125 0.875 18.8475 0.875 4.9375C0.875 4.06325 0.918875 3.1955 1.00825 2.33425C1.04929 1.93401 1.23735 1.56322 1.53603 1.29366C1.83472 1.02409 2.22278 0.874913 2.62513 0.875H9.87587C10.2847 0.874949 10.6785 1.02897 10.9787 1.30636C11.279 1.58374 11.4637 1.96411 11.496 2.37162C11.7011 4.98266 12.4565 7.52073 13.7125 9.819C13.9034 10.1677 13.9598 10.5742 13.8712 10.9617C13.7826 11.3492 13.555 11.6907 13.2315 11.9218L11.2198 13.3583ZM7.1215 12.2906L10.209 10.0855C9.33277 8.19415 8.73245 6.18687 8.42637 4.125H4.14125C4.1315 4.39475 4.12662 4.66613 4.12662 4.9375C4.125 17.0535 13.9465 26.875 26.0625 26.875C26.3339 26.875 26.6052 26.8701 26.875 26.8587V22.5736C24.8131 22.2676 22.8058 21.6672 20.9145 20.791L18.7094 23.8785C17.8216 23.5335 16.9593 23.1263 16.1289 22.6597L16.0346 22.6061C12.8473 20.7922 10.2078 18.1527 8.39387 14.9654L8.34025 14.8711C7.87372 14.0407 7.46646 13.1784 7.1215 12.2906Z" fill="#FFFFFF"/>
</svg>
